<?xml version="1.0" standalone="no"?><!DOCTYPE svg PUBLIC "-//W3C//DTD SVG 1.1//EN" "http://www.w3.org/Graphics/SVG/1.1/DTD/svg11.dtd"><svg t="1617800416752" class="icon" viewBox="0 0 1024 1024" version="1.1" xmlns="http://www.w3.org/2000/svg" p-id="17038" xmlns:xlink="http://www.w3.org/1999/xlink" width="200" height="200"><defs><style type="text/css"></style></defs><path d="M924.8 337.6c-22.6-53.4-54.9-101.3-96-142.4-41.1-41.1-89-73.4-142.4-96C631.2 75.8 572.5 64 512 64S392.9 75.8 337.6 99.2c-53.4 22.6-101.3 54.9-142.4 96-41.1 41.1-73.4 89-96 142.4C75.8 392.9 64 451.5 64 512s11.8 119.1 35.2 174.4c22.6 53.3 54.9 101.3 96 142.4 41.1 41.1 89.1 73.4 142.4 96C392.8 948.2 451.5 960 512 960s119.1-11.8 174.4-35.2c53.3-22.6 101.3-54.9 142.4-96 41.1-41.1 73.4-89 96-142.4C948.2 631.1 960 572.5 960 512s-11.8-119.1-35.2-174.4z m-76.3 316.5c-18.4 43.5-44.7 82.5-78.3 116.1-33.5 33.5-72.6 59.9-116.1 78.3-45 19-92.8 28.7-142.1 28.7-40.5 0-79.9-6.9-117.6-19.7l2.1-27.9c5.9-69.9 27.5-136.6 64.1-191.5 6.8-10.3 14.9-22.2 23-32.8 9.6 3.3 19.7 5.1 30 5.1 50.7 0 92-41.3 92-92.1 0-50.7-41.3-91.8-92-91.8-50.8 0-92.1 41.4-92.1 92.1 0 6.5 0.7 13.4 2 19.6-13 14.8-25.1 31.5-36.2 48-25 37-67.6 117-78.8 229.2-19.6-13.1-37.9-28.2-54.8-45.1-33.6-33.6-59.9-72.6-78.3-116.1-19-45-28.7-92.8-28.7-142.1s9.6-97.1 28.7-142.1c18.4-43.5 44.7-82.5 78.3-116.1 33.6-33.6 72.6-59.9 116.1-78.3 45-19 92.8-28.7 142.1-28.7s97.1 9.6 142.1 28.7c43.5 18.4 82.5 44.7 116.1 78.3 33.6 33.6 59.9 72.6 78.3 116.1 19 45 28.7 92.8 28.7 142.1 0.1 49.2-9.6 97-28.6 142zM512.1 277.9c-62.5 0-121.2 24.3-165.4 68.6-44.2 44.2-68.3 103-68.3 165.5v34.5h97.3V512c0-83.4 60.4-151.3 143.8-151.3S663.3 428.6 663.3 512 595.4 663.3 512 663.3h-38.9v77.9H512c62.5 0 121.3-21.9 165.5-66.1 44.2-44.2 68.6-100.5 68.6-163.1s-24.3-121.3-68.5-165.5-103-68.6-165.5-68.6z" p-id="17039"></path></svg>